<svg
   width="413.08987"
   height="216.87674"
   viewBox="0 0 109.2967 57.381972"
   version="1.1"
   id="svg1"
   xml:space="preserve"
   xmlns="http://www.w3.org/2000/svg"
   xmlns:svg="http://www.w3.org/2000/svg"><defs
     id="defs1" /><path fill="none" fill-opacity="0" stroke="#000000" stroke-width="0.79375" stroke-dasharray="none" stroke-opacity="1"
     d="M 0.88054322,29.641942 C 5.8127282,24.06247 11.088234,18.775392 17.058834,14.307648 c 4.158187,-2.781494 8.493657,-5.3975484 13.012233,-7.5501604 2.096524,-0.428846 0.32576,1.901123 -0.308892,2.614457 -0.558629,1.5503474 -2.543693,3.2117114 -1.473139,4.8819544 1.909747,-1.820514 2.835384,-4.4897854 4.985553,-6.1360034 2.228969,-2.237592 4.882174,-4.157522 7.899649,-5.166225 3.804415,-1.562651 7.986893,-1.92107 12.021634,-2.50020097 2.729126,-0.133568 5.437946,-0.06826 8.071177,0.73734797 3.171161,0.721291 6.367828,1.624318 8.99775,3.614689 1.971582,1.248903 3.864157,2.823435 5.229884,4.714963 0.166543,1.2302544 2.758527,2.9802064 1.773701,0.7352434 -0.935068,-2.3984474 -2.038234,-4.7361824 -3.516801,-6.8509554 -0.101554,-1.848229 2.408196,-0.0646 3.376266,0.103119 6.125471,2.283309 12.235627,4.747712 17.613517,8.5328484 3.46516,2.365976 6.845884,4.891031 10.020164,7.64075 1.44389,1.073648 1.94756,3.716237 0.004,4.529693 -2.19206,1.127807 -4.857074,1.00121 -7.036554,1.926676 0.39193,1.213863 2.564684,0.921496 3.663474,1.558923 2.50059,0.808868 5.10569,1.778562 7.01769,3.630975 0.9895,2.032416 0.45195,4.769567 -1.48457,6.068204 -5.73518,4.160302 -12.018814,7.532853 -18.28064,10.816788 -5.003769,1.948814 -9.92972,4.436813 -15.131558,5.646328 -0.562193,-0.882546 0.621421,-2.83268 0.779434,-4.107618 0.471422,-1.600885 1.008098,-3.18376 1.376777,-4.813001 -1.225681,-0.709487 -2.08787,1.756351 -3.026783,2.4411 -3.215849,3.451574 -6.888614,6.639985 -11.191957,8.643905 -6.82408,1.286872 -14.108415,1.59601 -20.662426,-1.054147 -3.349086,-0.996388 -6.241895,-2.972491 -8.655493,-5.468147 -2.710645,-2.217551 -4.417163,-5.525111 -6.370401,-8.236484 -1.648451,0.118316 0.03348,2.495737 0.296499,3.48213 0.764094,2.166199 2.154968,4.010283 3.22777,5.990217 -0.174931,1.721765 -2.309074,0.103726 -3.24248,-0.232689 -7.080125,-3.569103 -14.28697,-7.193211 -20.0265708,-12.782891 -2.087182,-2.179248 -4.92883,-4.136919 -5.51099498,-7.282367 0.124726,-0.265043 0.249451,-0.530085 0.374177,-0.795128 z"
     id="outer-outline" /><path fill="none" fill-opacity="0" stroke="#000000" stroke-width="0.79375" stroke-dasharray="none" stroke-opacity="1"
     d="m 11.506046,30.538419 c 0.08765,-0.346334 0.03214,-0.771693 0.393433,-0.966985 2.449449,-2.229143 4.86635,-4.49487 7.333,-6.704557 1.387686,-1.165396 2.729044,-2.388544 4.147321,-3.515805 0.692443,-0.49683 1.358274,-1.063654 2.067304,-1.516856 0.249221,0.05484 0.791351,-0.251323 0.768427,0.138922 0.139613,0.418247 -0.218817,0.751185 -0.355835,1.122048 -0.482853,0.616804 -0.916169,1.264981 -1.257888,1.971173 -0.468585,0.709159 -0.551049,1.572122 -0.801002,2.36837 -0.285195,1.054948 -0.59696,2.104222 -0.721289,3.193529 -0.214818,1.386542 -0.460219,2.771668 -0.656038,4.15909 0.0618,1.235837 0.173343,2.466592 0.37095,3.688553 0.207352,0.81995 0.541812,1.610367 0.816309,2.412514 -0.08191,0.353945 -0.269376,0.563955 -0.65165,0.508344 -0.392172,0.06135 -0.71705,-0.272943 -1.079592,-0.385802 -1.787328,-0.808665 -3.470437,-1.824504 -5.207678,-2.732737 -1.206005,-0.610145 -2.253214,-1.478975 -3.37983,-2.218447 -0.595314,-0.507118 -1.190628,-1.014236 -1.785942,-1.521354 z"
     id="lh-triangle" /><path fill="none" fill-opacity="0" stroke="#000000" stroke-width="0.79375" stroke-dasharray="none" stroke-opacity="1"
     d="m 78.990061,13.786177 c 1.805367,0.524388 3.620827,1.017341 5.419851,1.561485 0.902619,0.341089 1.832722,0.615588 2.716687,1.001873 2.451107,1.150907 4.899527,2.307521 7.345047,3.470253 0.0713,0.179252 0.42029,0.411229 0.30919,0.555852 -0.24555,0.162262 -0.48326,0.346137 -0.79327,0.330736 -3.06901,0.411975 -6.142998,0.783692 -9.218636,1.142346 -1.115572,0.134406 -2.231144,0.268813 -3.346716,0.403219 -0.249452,-0.109135 -0.498903,-0.218271 -0.748355,-0.327406 0.04546,-0.791607 0.200614,-1.583032 0.08503,-2.374907 -0.02368,-0.71548 -0.314827,-1.384455 -0.471226,-2.076859 -0.09531,-0.337709 -0.137963,-0.701562 -0.410334,-0.951376 -0.350809,-0.483604 -0.762944,-0.930643 -1.074511,-1.437645 -0.109083,-0.245435 -0.218165,-0.49087 -0.327247,-0.736305 0.171496,-0.187089 0.342993,-0.374177 0.514489,-0.561266 z"
     id="rh-upper-triangle" /><path fill="none" fill-opacity="0" stroke="#000000" stroke-width="0.79375" stroke-dasharray="none" stroke-opacity="1"
     d="m 82.685063,28.566183 c 2.689862,0.503855 5.37523,1.042318 8.038313,1.669942 2.45689,0.723148 4.92785,1.408978 7.36716,2.185343 0.75814,0.320749 1.51627,0.641499 2.274414,0.962248 0.25282,0.429769 -0.12727,0.554019 -0.471264,0.695698 -2.57327,1.264152 -5.16741,2.490491 -7.78202,3.663986 -1.86505,0.634981 -3.709959,1.337503 -5.587794,1.929654 -3.209975,0.799626 -6.422831,1.587507 -9.638598,2.363513 -0.319861,-0.150161 -0.837983,-0.258919 -0.342515,-0.579347 0.680393,-0.797738 1.430341,-1.544523 2.067289,-2.374086 0.540653,-0.968411 1.198094,-1.87783 1.657269,-2.887398 0.46624,-1.093143 0.946909,-2.181062 1.245266,-3.334983 0.176665,-0.525272 0.354188,-1.050426 0.267839,-1.611933 -0.01942,-0.645083 -0.01257,-1.291482 -0.07761,-1.934282 0.327417,-0.249452 0.654835,-0.498903 0.982251,-0.748355 z"
     id="rh-lower-triangle" /><path fill="none" fill-opacity="0" stroke="#000000" stroke-width="0.79375" stroke-dasharray="none" stroke-opacity="1"
     d="m 50.926763,11.704816 c -0.792722,-0.471305 -1.616014,0.0909 -2.426788,0.229904 -1.348871,0.377592 -2.750171,0.618733 -3.951168,1.381179 -1.173317,0.642284 -2.488948,1.077808 -3.396069,2.106832 -1.008758,0.923643 -2.114148,1.761117 -2.807699,2.96584 -0.893907,1.294594 -1.946724,2.497143 -2.485734,3.997303 -0.572036,1.284403 -1.28526,2.521263 -1.463763,3.938182 -0.273727,1.3663 -0.75862,2.710596 -0.593835,4.12259 0.02503,1.27717 -0.08297,2.572231 0.380557,3.790427 0.257978,1.084625 0.518342,2.168317 1.146004,3.108292 0.550241,1.097427 1.132934,2.173056 1.99569,3.060566 0.659984,0.773666 1.213195,1.672779 2.195943,2.06723 1.058019,0.656141 2.126146,1.290249 3.344968,1.595893 1.015546,0.412379 2.06591,0.665227 3.163775,0.700433 1.476558,0.195384 2.981923,0.167682 4.460167,0.07581 1.80115,-0.423899 3.639247,-0.728127 5.326238,-1.521791 1.191812,-0.377003 2.265412,-0.987113 3.289347,-1.695161 1.482943,-0.842264 2.689533,-2.073934 3.947953,-3.204195 1.497854,-1.778856 3.083605,-3.490209 4.323977,-5.466812 0.609965,-0.967451 0.906956,-2.113328 1.311221,-3.180996 0.450826,-1.37632 0.705728,-2.819789 0.758978,-4.260134 -0.160213,-1.731856 -0.556657,-3.440307 -1.033699,-5.101826 -0.563462,-0.853441 -1.008936,-1.813043 -1.921522,-2.352356 -0.898978,-0.805439 -2.008502,-1.354275 -3.107594,-1.811031 -1.423418,-0.305763 -2.922592,-0.592339 -4.33486,-0.08717 -1.057383,0.157646 -1.931397,0.838255 -2.826022,1.373773 -2.150758,1.677322 -4.108585,3.612913 -5.735945,5.803481 -1.244841,1.647877 -2.387055,3.410899 -2.966244,5.411134 -0.412899,0.812629 -0.459115,1.955138 0.403686,2.488844 0.391537,0.441169 1.041826,0.568025 1.580588,0.702061 0.91237,-0.06632 1.787897,-0.434357 2.588526,-0.830434 0.888779,-1.007122 2.050953,-1.96199 2.231151,-3.369034 0.122261,-0.857109 0.09133,-1.76372 -0.193941,-2.591846 0.147899,-0.671017 0.867558,-0.978811 1.496851,-0.795107 0.578779,0.046 0.876356,0.7224 1.196245,1.149246 0.772287,1.327699 1.603709,2.817815 1.328642,4.401798 -0.155282,0.985988 -0.749939,1.837175 -1.310904,2.63217 -1.084712,1.020866 -2.106389,2.187515 -3.425696,2.896358 -1.068819,0.50918 -2.159987,0.948046 -3.342028,1.101023 -0.914766,0.206631 -1.900826,0.22753 -2.818712,0.124559 -1.118085,-0.348408 -2.200524,-0.772182 -3.159135,-1.457767 -1.200038,-0.774163 -2.187971,-1.834882 -3.01087,-2.997791 -0.402672,-0.877283 -0.601151,-1.887632 -0.842999,-2.827276 0.01956,-1.38104 0.02275,-2.764062 0.425016,-4.098746 0.479215,-1.343901 1.378194,-2.522684 1.901687,-3.861202 0.514424,-1.199892 1.057722,-2.38338 1.881604,-3.407447 1.164866,-1.795139 2.814117,-3.209779 4.433998,-4.579484 0.680606,-0.440554 1.549759,-0.763227 2.007232,-1.428337 0.01173,-0.09966 0.02345,-0.199325 0.03518,-0.298987 z"
     id="spiral" /></svg>
